<?xml version="1.0" standalone="no"?>
<!DOCTYPE svg PUBLIC "-//W3C//DTD SVG 20010904//EN"
 "http://www.w3.org/TR/2001/REC-SVG-20010904/DTD/svg10.dtd">
<svg version="1.0" xmlns="http://www.w3.org/2000/svg"
 width="400.000000pt" height="400.000000pt" viewBox="0 0 400.000000 400.000000"
 preserveAspectRatio="xMidYMid meet">

<g transform="translate(0.000000,400.000000) scale(0.100000,-0.100000)"
fill="#000000" stroke="none">
<path d="M790 1990 l0 -170 30 0 30 0 0 120 c0 66 3 120 8 120 4 0 52 -54 106
-120 91 -109 103 -120 133 -120 l33 0 0 170 0 170 -30 0 -29 0 -3 -122 -3
-123 -103 123 c-95 113 -106 122 -138 122 l-34 0 0 -170z"/>
<path d="M1210 2140 c-18 -18 -20 -33 -20 -149 0 -129 0 -130 27 -151 26 -20
37 -21 151 -18 163 4 162 3 162 168 0 104 -2 120 -21 144 -20 26 -22 26 -150
26 -116 0 -131 -2 -149 -20z m258 -147 l3 -103 -111 0 -110 0 0 105 0 106 108
-3 107 -3 3 -102z"/>
<path d="M1624 1990 c57 -161 62 -170 85 -168 22 3 30 17 65 115 23 62 44 113
47 113 4 0 16 -28 29 -62 61 -170 60 -168 85 -168 19 0 26 10 43 58 11 31 38
108 61 170 l40 112 -32 0 c-30 0 -34 -4 -51 -52 -43 -122 -58 -159 -64 -153
-3 3 -22 49 -42 103 -33 93 -36 97 -66 100 -32 3 -32 3 -70 -102 -21 -59 -41
-106 -44 -106 -3 0 -14 24 -24 53 -57 160 -55 157 -90 157 l-33 0 61 -170z"/>
<path d="M2137 2142 c-14 -16 -17 -43 -17 -170 l0 -152 30 0 30 0 0 60 0 60
105 0 105 0 0 -60 0 -60 30 0 30 0 0 154 c0 195 8 186 -171 186 -109 0 -128
-2 -142 -18z m253 -92 l0 -50 -105 0 -105 0 0 50 0 50 105 0 105 0 0 -50z"/>
<path d="M2520 1990 l0 -170 30 0 29 0 3 122 3 122 103 -122 c89 -105 107
-122 133 -122 l29 0 0 170 0 170 -30 0 -30 0 0 -115 c0 -63 -3 -115 -7 -115
-5 1 -51 52 -103 115 -85 104 -98 115 -127 115 l-33 0 0 -170z"/>
<path d="M2900 2130 l0 -30 70 0 70 0 0 -140 0 -140 30 0 30 0 0 140 0 140 70
0 70 0 0 30 0 30 -170 0 -170 0 0 -30z"/>
</g>
</svg>
